<svg xmlns="http://www.w3.org/2000/svg" viewBox="0 0 400 320" fill="none" aria-hidden="true">
  <defs>
    <linearGradient id="ac-g" x1="0%" y1="0%" x2="100%" y2="100%">
      <stop offset="0%" stop-color="#38bdf8"/>
      <stop offset="100%" stop-color="#a78bfa"/>
    </linearGradient>
  </defs>
  <rect width="400" height="320" rx="20" fill="#12151e" stroke="rgba(56,189,248,.2)"/>
  <circle cx="340" cy="48" r="36" fill="rgba(167,139,250,.15)"/>
  <circle cx="64" cy="260" r="44" fill="rgba(56,189,248,.12)"/>
  <g stroke="url(#ac-g)" stroke-width="2" stroke-linecap="round" opacity=".9">
    <path d="M120 140l-28 28 28 28"/>
    <path d="M280 140l28 28-28 28"/>
  </g>
  <rect x="160" y="120" width="80" height="76" rx="8" stroke="rgba(148,163,184,.4)" stroke-width="1.5" fill="#0c0e14"/>
  <text x="176" y="158" fill="#94a3b8" font-family="ui-monospace,monospace" font-size="13">&lt;/&gt;</text>
  <text x="176" y="178" fill="#38bdf8" font-family="ui-monospace,monospace" font-size="11" opacity=".8">TS</text>
  <g opacity=".5">
    <circle cx="100" cy="88" r="6" fill="#38bdf8"/>
    <circle cx="200" cy="64" r="5" fill="#a78bfa"/>
    <circle cx="280" cy="96" r="5" fill="#38bdf8"/>
    <line x1="106" y1="88" x2="195" y2="66" stroke="#475569" stroke-width="1"/>
    <line x1="205" y1="64" x2="275" y2="94" stroke="#475569" stroke-width="1"/>
  </g>
  <rect x="48" y="200" width="304" height="88" rx="10" fill="#0c0e14" stroke="rgba(56,189,248,.15)"/>
  <rect x="64" y="216" width="200" height="6" rx="2" fill="#334155" opacity=".6"/>
  <rect x="64" y="232" width="160" height="6" rx="2" fill="#334155" opacity=".45"/>
  <rect x="64" y="248" width="220" height="6" rx="2" fill="#334155" opacity=".35"/>
  <rect x="64" y="264" width="120" height="8" rx="3" fill="url(#ac-g)" opacity=".5"/>
</svg>
