<svg xmlns="http://www.w3.org/2000/svg" viewBox="0 0 440 360" fill="none" aria-hidden="true">
  <defs>
    <linearGradient id="hd-a" x1="0%" y1="0%" x2="100%" y2="100%">
      <stop offset="0%" stop-color="#38bdf8" stop-opacity=".35"/>
      <stop offset="100%" stop-color="#a78bfa" stop-opacity=".25"/>
    </linearGradient>
    <linearGradient id="hd-b" x1="0%" y1="100%" x2="100%" y2="0%">
      <stop offset="0%" stop-color="#0ea5e9"/>
      <stop offset="100%" stop-color="#a78bfa"/>
    </linearGradient>
    <filter id="hd-blur" x="-20%" y="-20%" width="140%" height="140%">
      <feGaussianBlur stdDeviation="8" result="b"/>
      <feMerge><feMergeNode in="b"/><feMergeNode in="SourceGraphic"/></feMerge>
    </filter>
  </defs>
  <rect width="440" height="360" rx="24" fill="#12151e" stroke="url(#hd-b)" stroke-opacity=".35"/>
  <circle cx="380" cy="48" r="64" fill="url(#hd-a)" filter="url(#hd-blur)" opacity=".6"/>
  <circle cx="72" cy="300" r="48" fill="url(#hd-a)" filter="url(#hd-blur)" opacity=".45"/>
  <g stroke="#38bdf8" stroke-opacity=".5" stroke-width="1.5">
    <rect x="36" y="40" width="200" height="120" rx="10" fill="#0c0e14" stroke="#38bdf8" stroke-opacity=".4"/>
    <rect x="248" y="40" width="156" height="52" rx="8" fill="#0c0e14"/>
    <rect x="248" y="104" width="156" height="56" rx="8" fill="#0c0e14"/>
    <path d="M52 168h168M52 188h120M52 208h140" stroke-dasharray="4 6" opacity=".6"/>
  </g>
  <g fill="#38bdf8" opacity=".85">
    <rect x="52" y="56" width="40" height="6" rx="2"/>
    <rect x="52" y="72" width="120" height="4" rx="1" opacity=".5"/>
    <rect x="52" y="84" width="100" height="4" rx="1" opacity=".35"/>
  </g>
  <rect x="60" y="100" width="152" height="48" rx="6" fill="url(#hd-a)" opacity=".4"/>
  <polyline points="68,132 88,118 108,124 128,108 148,116 168,96 188,104 208,92" stroke="url(#hd-b)" stroke-width="3" fill="none" stroke-linecap="round"/>
  <g transform="translate(268 52)">
    <circle cx="20" cy="16" r="10" fill="#22c55e" opacity=".9"/>
    <path d="M16 28h24l-4 16H20z" fill="#38bdf8" opacity=".7"/>
  </g>
  <text x="300" y="78" fill="#94a3b8" font-family="system-ui,sans-serif" font-size="11" font-weight="600">GPS</text>
  <rect x="36" y="188" width="368" height="132" rx="12" fill="#0c0e14" stroke="#a78bfa" stroke-opacity=".25"/>
  <rect x="52" y="208" width="88" height="40" rx="6" fill="#12151e" stroke="#38bdf8" stroke-opacity=".3"/>
  <rect x="152" y="208" width="88" height="40" rx="6" fill="#12151e" stroke="#38bdf8" stroke-opacity=".2"/>
  <rect x="252" y="208" width="88" height="40" rx="6" fill="#12151e" stroke="#38bdf8" stroke-opacity=".2"/>
  <rect x="52" y="260" width="288" height="8" rx="3" fill="#1e293b"/>
  <rect x="52" y="260" width="180" height="8" rx="3" fill="url(#hd-b)" opacity=".6"/>
  <circle cx="352" cy="264" r="14" fill="#a78bfa" opacity=".35"/>
  <path d="M352 256v16M344 264h16" stroke="#e8eaf2" stroke-width="2" stroke-linecap="round" opacity=".7"/>
</svg>
